REM DIRINDEX 1\4,1\2\5,1\2\6,1\2\7,1\3\8,1\3\9,1\3\10,1\3\11
REM DIRNAME folder01,folder02,folder03,folder04,folder05,folder06,folder07,folder08,folder09,folder10,folder11
TITLE ""
FILE "t_k_077-086.mp3" MP3
  TRACK 01 AUDIO
    TITLE "5:cjc108_0230"
    INDEX 01 00:00:00
  TRACK 02 AUDIO
    TITLE "0:"
    INDEX 01 00:00:64
  TRACK 03 AUDIO
    TITLE "6:cjc108_0231"
    INDEX 01 00:01:05
  TRACK 04 AUDIO
    TITLE "0:"
    INDEX 01 00:03:08
  TRACK 05 AUDIO
    TITLE "7:cjc108_0232"
    INDEX 01 00:03:25
  TRACK 06 AUDIO
    TITLE "0:"
    INDEX 01 00:08:05
  TRACK 07 AUDIO
    TITLE "5:cjc108_0233"
    INDEX 01 00:09:02
  TRACK 08 AUDIO
    TITLE "0:"
    INDEX 01 00:10:08
  TRACK 09 AUDIO
    TITLE "6:cjc108_0234"
    INDEX 01 00:10:19
  TRACK 10 AUDIO
    TITLE "0:"
    INDEX 01 00:11:29
  TRACK 11 AUDIO
    TITLE "7:cjc108_0235"
    INDEX 01 00:11:44
  TRACK 12 AUDIO
    TITLE "0:"
    INDEX 01 00:15:01
  TRACK 13 AUDIO
    TITLE "5:cjc108_0236"
    INDEX 01 00:15:60
  TRACK 14 AUDIO
    TITLE "0:"
    INDEX 01 00:16:67
  TRACK 15 AUDIO
    TITLE "6:cjc108_0237"
    INDEX 01 00:17:04
  TRACK 16 AUDIO
    TITLE "0:"
    INDEX 01 00:19:28
  TRACK 17 AUDIO
    TITLE "7:cjc108_0238"
    INDEX 01 00:19:44
  TRACK 18 AUDIO
    TITLE "0:"
    INDEX 01 00:25:52
  TRACK 19 AUDIO
    TITLE "5:cjc108_0239"
    INDEX 01 00:26:28
  TRACK 20 AUDIO
    TITLE "0:"
    INDEX 01 00:27:45
  TRACK 21 AUDIO
    TITLE "6:cjc108_0240"
    INDEX 01 00:27:49
  TRACK 22 AUDIO
    TITLE "0:"
    INDEX 01 00:29:01
  TRACK 23 AUDIO
    TITLE "7:cjc108_0241"
    INDEX 01 00:29:17
  TRACK 24 AUDIO
    TITLE "0:"
    INDEX 01 00:33:62
  TRACK 25 AUDIO
    TITLE "5:cjc108_0242"
    INDEX 01 00:34:49
  TRACK 26 AUDIO
    TITLE "0:"
    INDEX 01 00:35:59
  TRACK 27 AUDIO
    TITLE "6:cjc108_0243"
    INDEX 01 00:35:74
  TRACK 28 AUDIO
    TITLE "0:"
    INDEX 01 00:38:26
  TRACK 29 AUDIO
    TITLE "7:cjc108_0244"
    INDEX 01 00:38:37
  TRACK 30 AUDIO
    TITLE "0:"
    INDEX 01 00:44:32
  TRACK 31 AUDIO
    TITLE "5:cjc108_0245"
    INDEX 01 00:45:20
  TRACK 32 AUDIO
    TITLE "0:"
    INDEX 01 00:46:35
  TRACK 33 AUDIO
    TITLE "6:cjc108_0246"
    INDEX 01 00:46:43
  TRACK 34 AUDIO
    TITLE "0:"
    INDEX 01 00:47:56
  TRACK 35 AUDIO
    TITLE "7:cjc108_0247"
    INDEX 01 00:47:72
  TRACK 36 AUDIO
    TITLE "0:"
    INDEX 01 00:53:66
  TRACK 37 AUDIO
    TITLE "5:cjc108_0248"
    INDEX 01 00:54:44
  TRACK 38 AUDIO
    TITLE "0:"
    INDEX 01 00:55:57
  TRACK 39 AUDIO
    TITLE "6:cjc108_0249"
    INDEX 01 00:55:61
  TRACK 40 AUDIO
    TITLE "0:"
    INDEX 01 00:58:07
  TRACK 41 AUDIO
    TITLE "7:cjc108_0250"
    INDEX 01 00:58:24
  TRACK 42 AUDIO
    TITLE "0:"
    INDEX 01 01:04:29
  TRACK 43 AUDIO
    TITLE "5:cjc108_0251"
    INDEX 01 01:05:21
  TRACK 44 AUDIO
    TITLE "0:"
    INDEX 01 01:06:34
  TRACK 45 AUDIO
    TITLE "6:cjc108_0252"
    INDEX 01 01:06:49
  TRACK 46 AUDIO
    TITLE "0:"
    INDEX 01 01:07:55
  TRACK 47 AUDIO
    TITLE "7:cjc108_0253"
    INDEX 01 01:07:74
  TRACK 48 AUDIO
    TITLE "0:"
    INDEX 01 01:12:50
  TRACK 49 AUDIO
    TITLE "5:cjc108_0254"
    INDEX 01 01:13:42
  TRACK 50 AUDIO
    TITLE "0:"
    INDEX 01 01:14:59
  TRACK 51 AUDIO
    TITLE "6:cjc108_0255"
    INDEX 01 01:14:72
  TRACK 52 AUDIO
    TITLE "0:"
    INDEX 01 01:16:07
  TRACK 53 AUDIO
    TITLE "7:cjc108_0256"
    INDEX 01 01:16:24
  TRACK 54 AUDIO
    TITLE "0:"
    INDEX 01 01:21:61
  TRACK 55 AUDIO
    TITLE "5:cjc108_0257"
    INDEX 01 01:22:48
  TRACK 56 AUDIO
    TITLE "0:"
    INDEX 01 01:23:67
  TRACK 57 AUDIO
    TITLE "6:cjc108_0258"
    INDEX 01 01:23:73
  TRACK 58 AUDIO
    TITLE "0:"
    INDEX 01 01:26:42
  TRACK 59 AUDIO
    TITLE "7:cjc108_0259"
    INDEX 01 01:26:58
  TRACK 60 AUDIO
    TITLE "0:"
    INDEX 01 01:31:32
